PathFileType	4	(X/Y/Z)	 2.2Hzlow3min.trc
DataRate	CameraRate	NumFrames	NumMarkers	Units	OrigDataRate	OrigDataStartFrame	OrigNumFrames
200	200	9	43	m	200	501	1000
Frame#	Time	C7			LSH			RSH			MAN			RASI			LASI			HIPR			HIPL			RPSI			LPSI			COX			RTHI1			RTHI2			RTHI3			RTHI4			RLKN			RMKN			RSHA1			RSHA2			RSHA3			RSHA4			RLMAL			RMMAL			RHEEL			RMET5			RMET1			RTOE			LTHI1			LTHI2			LTHI3			LTHI4			LLKN			LMKN			LSHA1			LSHA2			LSHA3			LSHA4			LLMAL			LMMAL			LHEEL			LMET5			LMET1			LTOE			
		X1	Y1	Z1	X2	Y2	Z2	X3	Y3	Z3	X4	Y4	Z4	X5	Y5	Z5	X6	Y6	Z6	X7	Y7	Z7	X8	Y8	Z8	X9	Y9	Z9	X10	Y10	Z10	X11	Y11	Z11	X12	Y12	Z12	X13	Y13	Z13	X14	Y14	Z14	X15	Y15	Z15	X16	Y16	Z16	X17	Y17	Z17	X18	Y18	Z18	X19	Y19	Z19	X20	Y20	Z20	X21	Y21	Z21	X22	Y22	Z22	X23	Y23	Z23	X24	Y24	Z24	X25	Y25	Z25	X26	Y26	Z26	X27	Y27	Z27	X28	Y28	Z28	X29	Y29	Z29	X30	Y30	Z30	X31	Y31	Z31	X32	Y32	Z32	X33	Y33	Z33	X34	Y34	Z34	X35	Y35	Z35	X36	Y36	Z36	X37	Y37	Z37	X38	Y38	Z38	X39	Y39	Z39	X40	Y40	Z40	X41	Y41	Z41	X42	Y42	Z42	X43	Y43	Z43	
501	2.5050	-0.252045	1.621056	-0.546973	-0.214853	1.602391	-0.736168	-0.183897	1.603651	-0.348373	-0.111400	1.563896	-0.548341	-0.141241	1.120820	-0.400687	-0.141296	1.113351	-0.681262	-0.205739	1.191156	-0.380383	-0.202506	1.175341	-0.702268	-0.294011	1.153552	-0.501009	-0.294001	1.153892	-0.585279	-0.292014	1.157512	-0.540800	-0.209970	0.893691	-0.348057	-0.198109	0.835348	-0.342702	-0.134089	0.846643	-0.339321	-0.138852	0.907806	-0.345387	-0.162224	0.566903	-0.365206	-0.150565	0.561319	-0.477443	-0.267383	0.405343	-0.346936	-0.281104	0.366169	-0.357539	-0.222407	0.348788	-0.353373	-0.213076	0.387291	-0.347787	-0.292205	0.172321	-0.365707	-0.256029	0.174703	-0.453514	-0.347429	0.162656	-0.407615	-0.206182	0.062792	-0.357607	-0.167253	0.064449	-0.429430	-0.143445	0.049558	-0.425547	-0.239861	0.898589	-0.724514	-0.226156	0.838745	-0.731060	-0.164738	0.848953	-0.747759	-0.169861	0.909040	-0.743308	-0.171527	0.571942	-0.710798	-0.145470	0.560239	-0.610098	-0.295074	0.372855	-0.707330	-0.306334	0.334507	-0.698272	-0.247789	0.319646	-0.713582	-0.243930	0.362791	-0.721833	-0.314488	0.177730	-0.699740	-0.271840	0.172438	-0.617186	-0.360754	0.164344	-0.650545	-0.218287	0.061492	-0.711567	-0.183285	0.061325	-0.640675	-0.161180	0.049413	-0.649854	
502	2.5100	-0.251351	1.623523	-0.546744	-0.214247	1.605154	-0.735851	-0.183158	1.606069	-0.348283	-0.110707	1.566451	-0.548250	-0.141080	1.123355	-0.400726	-0.141101	1.115865	-0.681360	-0.205589	1.194055	-0.380483	-0.202395	1.177835	-0.702065	-0.293680	1.156598	-0.501079	-0.293672	1.156945	-0.585308	-0.291649	1.160550	-0.540873	-0.210279	0.896212	-0.348271	-0.198448	0.837856	-0.342886	-0.134423	0.849127	-0.339383	-0.139152	0.910284	-0.345467	-0.161857	0.569204	-0.365132	-0.150344	0.563658	-0.477202	-0.266361	0.407248	-0.346394	-0.280021	0.368023	-0.356907	-0.221226	0.350805	-0.353035	-0.211995	0.389340	-0.347452	-0.290518	0.174200	-0.365147	-0.254625	0.176748	-0.453041	-0.345805	0.163824	-0.406813	-0.203219	0.065962	-0.356607	-0.164059	0.068010	-0.428256	-0.140023	0.053262	-0.424343	-0.240191	0.901069	-0.724243	-0.226474	0.841213	-0.730753	-0.165188	0.851453	-0.747880	-0.170304	0.911550	-0.743450	-0.170661	0.574309	-0.710670	-0.145042	0.562893	-0.609856	-0.293703	0.374855	-0.707607	-0.304898	0.336444	-0.698584	-0.246270	0.321777	-0.713742	-0.242484	0.364933	-0.721945	-0.312504	0.179649	-0.700088	-0.270138	0.174529	-0.617365	-0.358911	0.165665	-0.651058	-0.215278	0.064559	-0.712345	-0.180213	0.064530	-0.641449	-0.157881	0.052750	-0.650619	
503	2.5150	-0.250636	1.625731	-0.546536	-0.213634	1.607625	-0.735582	-0.182410	1.608200	-0.348175	-0.109980	1.568737	-0.548168	-0.140944	1.125582	-0.400765	-0.140923	1.118086	-0.681425	-0.205388	1.196477	-0.380578	-0.202146	1.179952	-0.701872	-0.293404	1.159306	-0.501131	-0.293404	1.159653	-0.585320	-0.291349	1.163238	-0.540925	-0.210565	0.898447	-0.348465	-0.198748	0.840087	-0.343071	-0.134713	0.851343	-0.339479	-0.139431	0.912503	-0.345564	-0.161416	0.571282	-0.365117	-0.150085	0.565771	-0.476983	-0.265325	0.408993	-0.345840	-0.278955	0.369708	-0.356336	-0.220074	0.352650	-0.352721	-0.210920	0.391201	-0.347143	-0.288854	0.175882	-0.364625	-0.253189	0.178614	-0.452595	-0.344187	0.164689	-0.406126	-0.200112	0.069155	-0.355510	-0.160616	0.071596	-0.426950	-0.136326	0.056961	-0.423000	-0.240507	0.903239	-0.723972	-0.226782	0.843376	-0.730443	-0.165620	0.853634	-0.747940	-0.170733	0.913748	-0.743570	-0.169696	0.576445	-0.710511	-0.144579	0.565325	-0.609617	-0.292349	0.376717	-0.707864	-0.303485	0.338236	-0.698857	-0.244782	0.323756	-0.713911	-0.241070	0.366922	-0.722059	-0.310520	0.181368	-0.700404	-0.268385	0.176447	-0.617535	-0.357046	0.166695	-0.651478	-0.212136	0.067551	-0.713138	-0.176996	0.067652	-0.642290	-0.154440	0.056018	-0.651483	
504	2.5200	-0.249899	1.627685	-0.546356	-0.213008	1.609796	-0.735362	-0.181656	1.610041	-0.348043	-0.109230	1.570764	-0.548090	-0.140829	1.127508	-0.400807	-0.140755	1.120020	-0.681456	-0.205130	1.198423	-0.380663	-0.201771	1.181725	-0.701702	-0.293186	1.161660	-0.501167	-0.293189	1.162017	-0.585322	-0.291115	1.165573	-0.540960	-0.210806	0.900408	-0.348635	-0.198987	0.842048	-0.343253	-0.134941	0.853292	-0.339594	-0.139668	0.914460	-0.345664	-0.160943	0.573158	-0.365145	-0.149818	0.567674	-0.476790	-0.264295	0.410547	-0.345340	-0.277865	0.371216	-0.355784	-0.218940	0.354316	-0.352435	-0.209850	0.392900	-0.346870	-0.287159	0.177356	-0.364130	-0.251669	0.180272	-0.452167	-0.342527	0.165286	-0.405554	-0.196903	0.072259	-0.354323	-0.157068	0.075021	-0.425560	-0.132505	0.060598	-0.421542	-0.240771	0.905122	-0.723709	-0.227047	0.845245	-0.730139	-0.165993	0.855510	-0.747950	-0.171101	0.915649	-0.743672	-0.168693	0.578377	-0.710339	-0.144097	0.567528	-0.609415	-0.291014	0.378388	-0.708089	-0.302060	0.339835	-0.699093	-0.243296	0.325573	-0.714085	-0.239676	0.368752	-0.722188	-0.308489	0.182851	-0.700697	-0.266519	0.178158	-0.617712	-0.355106	0.167472	-0.651828	-0.208887	0.070358	-0.713879	-0.173694	0.070581	-0.643089	-0.150930	0.059111	-0.652324	
505	2.5250	-0.249147	1.629392	-0.546201	-0.212370	1.611672	-0.735190	-0.180887	1.611589	-0.347889	-0.108462	1.572539	-0.548016	-0.140728	1.129147	-0.400855	-0.140590	1.121684	-0.681459	-0.204814	1.199907	-0.380731	-0.201284	1.183180	-0.701561	-0.293017	1.163666	-0.501194	-0.293015	1.164055	-0.585325	-0.290934	1.167563	-0.540989	-0.210981	0.902104	-0.348779	-0.199147	0.843751	-0.343425	-0.135095	0.854989	-0.339719	-0.139844	0.916167	-0.345758	-0.160467	0.574846	-0.365207	-0.149578	0.569369	-0.476635	-0.263272	0.411923	-0.344885	-0.276776	0.372540	-0.355301	-0.217793	0.355827	-0.352139	-0.208779	0.394442	-0.346623	-0.285391	0.178613	-0.363657	-0.250037	0.181713	-0.451753	-0.340790	0.165655	-0.405067	-0.193621	0.075242	-0.353131	-0.153481	0.078327	-0.424142	-0.128647	0.064123	-0.419924	-0.240953	0.906734	-0.723473	-0.227231	0.846851	-0.729863	-0.166262	0.857104	-0.747914	-0.171374	0.917277	-0.743760	-0.167712	0.580116	-0.710163	-0.143611	0.569488	-0.609255	-0.289681	0.379835	-0.708288	-0.300605	0.341224	-0.699315	-0.241783	0.327213	-0.714272	-0.238289	0.370402	-0.722325	-0.306375	0.184101	-0.700990	-0.264510	0.179650	-0.617913	-0.353065	0.168017	-0.652137	-0.205604	0.072907	-0.714571	-0.170369	0.073283	-0.643838	-0.147401	0.062064	-0.653125	
506	2.5300	-0.248389	1.630851	-0.546060	-0.211721	1.613258	-0.735061	-0.180155	1.612878	-0.347683	-0.107678	1.574070	-0.547940	-0.140635	1.130509	-0.400912	-0.140420	1.123090	-0.681438	-0.204443	1.200962	-0.380781	-0.200712	1.184341	-0.701458	-0.292885	1.165346	-0.501212	-0.292876	1.165768	-0.585335	-0.290792	1.169238	-0.541009	-0.211072	0.903553	-0.348894	-0.199222	0.845198	-0.343592	-0.135169	0.856443	-0.339848	-0.139943	0.917637	-0.345845	-0.160012	0.576356	-0.365287	-0.149400	0.570853	-0.476531	-0.262250	0.413117	-0.344470	-0.275673	0.373671	-0.354870	-0.216619	0.357169	-0.351851	-0.207700	0.395816	-0.346398	-0.283543	0.179652	-0.363209	-0.248277	0.182924	-0.451364	-0.338947	0.165811	-0.404628	-0.190312	0.078021	-0.351943	-0.149916	0.081379	-0.422722	-0.124809	0.067504	-0.418307	-0.241026	0.908093	-0.723281	-0.227302	0.848207	-0.729634	-0.166395	0.858440	-0.747841	-0.171522	0.918647	-0.743832	-0.166809	0.581676	-0.709988	-0.143130	0.571196	-0.609131	-0.288345	0.381045	-0.708483	-0.299107	0.342369	-0.699530	-0.240220	0.328653	-0.714470	-0.236895	0.371852	-0.722465	-0.304178	0.185105	-0.701295	-0.262379	0.180909	-0.618141	-0.350922	0.168343	-0.652438	-0.202279	0.075200	-0.715188	-0.166999	0.075746	-0.644514	-0.143861	0.064749	-0.653880	
507	2.5350	-0.247620	1.632071	-0.545941	-0.211055	1.614558	-0.734975	-0.179409	1.613882	-0.347445	-0.106887	1.575361	-0.547860	-0.140542	1.131615	-0.400978	-0.140241	1.124252	-0.681397	-0.204022	1.201619	-0.380810	-0.200079	1.185228	-0.701392	-0.292789	1.166707	-0.501228	-0.292760	1.167169	-0.585357	-0.290685	1.170594	-0.541025	-0.211077	0.904761	-0.348978	-0.199205	0.846412	-0.343732	-0.135155	0.857669	-0.339976	-0.139957	0.918876	-0.345930	-0.159591	0.577689	-0.365375	-0.149298	0.572130	-0.476486	-0.261222	0.414103	-0.344106	-0.274535	0.374590	-0.354473	-0.215418	0.358332	-0.351567	-0.206618	0.396996	-0.346186	-0.281594	0.180463	-0.362760	-0.246408	0.183905	-0.451000	-0.337012	0.165772	-0.404221	-0.187030	0.080558	-0.350805	-0.146405	0.084160	-0.421376	-0.121033	0.070660	-0.416759	-0.240974	0.909213	-0.723142	-0.227235	0.849329	-0.729455	-0.166370	0.859551	-0.747768	-0.171514	0.919785	-0.743876	-0.166020	0.583057	-0.709825	-0.142669	0.572663	-0.609031	-0.287000	0.382003	-0.708685	-0.297582	0.343223	-0.699742	-0.238609	0.329869	-0.714670	-0.235486	0.373075	-0.722607	-0.301913	0.185872	-0.701616	-0.260165	0.181923	-0.618399	-0.348693	0.168459	-0.652756	-0.198934	0.077210	-0.715712	-0.163603	0.077972	-0.645114	-0.140314	0.067249	-0.654541	
508	2.5400	-0.246840	1.633055	-0.545838	-0.210372	1.615573	-0.734924	-0.178646	1.614602	-0.347178	-0.106089	1.576416	-0.547777	-0.140446	1.132474	-0.401051	-0.140047	1.125179	-0.681336	-0.203563	1.201924	-0.380821	-0.199404	1.185857	-0.701337	-0.292715	1.167771	-0.501241	-0.292658	1.168264	-0.585386	-0.290577	1.171674	-0.541048	-0.210989	0.905746	-0.349031	-0.199088	0.847400	-0.343840	-0.135048	0.858677	-0.340107	-0.139884	0.919887	-0.346023	-0.159211	0.578834	-0.365461	-0.149278	0.573206	-0.476506	-0.260212	0.414856	-0.343811	-0.273359	0.375285	-0.354093	-0.214181	0.359303	-0.351284	-0.205525	0.397984	-0.345986	-0.279573	0.181044	-0.362327	-0.244452	0.184658	-0.450666	-0.334997	0.165546	-0.403822	-0.183756	0.082838	-0.349733	-0.142949	0.086670	-0.420096	-0.117333	0.073594	-0.415287	-0.240786	0.910121	-0.723076	-0.227024	0.850235	-0.729341	-0.166179	0.860466	-0.747707	-0.171344	0.920710	-0.743893	-0.165355	0.584255	-0.709677	-0.142249	0.573889	-0.608940	-0.285648	0.382680	-0.708893	-0.296033	0.343798	-0.699977	-0.236968	0.330839	-0.714868	-0.234066	0.374048	-0.722754	-0.299604	0.186406	-0.701942	-0.257898	0.182699	-0.618669	-0.346404	0.168362	-0.653123	-0.195525	0.078961	-0.716138	-0.160171	0.079995	-0.645595	-0.136742	0.069604	-0.655076	
509	2.5450	-0.246058	1.633805	-0.545737	-0.209685	1.616318	-0.734908	-0.177865	1.615045	-0.346889	-0.105289	1.577225	-0.547693	-0.140346	1.133098	-0.401130	-0.139838	1.125886	-0.681262	-0.203076	1.201927	-0.380821	-0.198714	1.186250	-0.701292	-0.292659	1.168547	-0.501256	-0.292567	1.169067	-0.585433	-0.290490	1.172476	-0.541080	-0.210814	0.906517	-0.349046	-0.198886	0.848171	-0.343905	-0.134855	0.859476	-0.340244	-0.139720	0.920679	-0.346134	-0.158860	0.579782	-0.365540	-0.149339	0.574079	-0.476587	-0.259189	0.415411	-0.343508	-0.272172	0.375756	-0.353739	-0.212923	0.360062	-0.351007	-0.204424	0.398760	-0.345792	-0.277511	0.181402	-0.361918	-0.242449	0.185199	-0.450363	-0.332927	0.165143	-0.403410	-0.180516	0.084834	-0.348762	-0.139566	0.088914	-0.418954	-0.113734	0.076268	-0.413937	-0.240463	0.910825	-0.723090	-0.226666	0.850948	-0.729311	-0.165813	0.861197	-0.747650	-0.171009	0.921434	-0.743881	-0.164813	0.585258	-0.709538	-0.141888	0.574871	-0.608836	-0.284289	0.383098	-0.709123	-0.294470	0.344118	-0.700238	-0.235307	0.331556	-0.715070	-0.232635	0.374770	-0.722899	-0.297271	0.186708	-0.702275	-0.255609	0.183264	-0.618943	-0.344078	0.168048	-0.653543	-0.192073	0.080484	-0.716476	-0.156704	0.081864	-0.645991	-0.133122	0.071767	-0.655499	
